<?xml version="1.0" standalone="no"?>
<!DOCTYPE svg PUBLIC "-//W3C//DTD SVG 20010904//EN"
 "http://www.w3.org/TR/2001/REC-SVG-20010904/DTD/svg10.dtd">
<svg version="1.0" xmlns="http://www.w3.org/2000/svg"
 width="1024.000000pt" height="1024.000000pt" viewBox="0 0 1024.000000 1024.000000"
 preserveAspectRatio="xMidYMid meet">

<g transform="translate(0.000000,1024.000000) scale(0.100000,-0.100000)"
fill="#000000" stroke="none">
<path d="M4822 8294 c-98 -26 -164 -65 -243 -144 -116 -116 -159 -221 -159
-388 0 -157 53 -283 166 -399 76 -78 175 -128 296 -149 123 -22 215 -6 347 60
97 50 194 162 256 297 33 73 49 205 36 288 -14 86 -69 199 -127 261 -65 70
-181 145 -260 170 -79 24 -231 26 -312 4z"/>
<path d="M2795 7150 c-103 -9 -224 -43 -300 -83 -37 -19 -93 -64 -145 -117
-101 -101 -147 -184 -188 -342 l-27 -103 3 -645 c4 -731 4 -729 78 -880 87
-176 258 -313 441 -354 75 -17 361 -21 522 -7 l75 6 11 53 c14 59 69 146 123
194 20 17 66 44 102 60 36 16 72 33 80 37 9 5 17 28 20 57 5 47 5 46 13 -30 4
-43 7 -99 7 -123 0 -43 0 -43 -57 -70 -109 -51 -193 -164 -208 -279 -7 -54 13
-162 41 -215 37 -72 131 -149 182 -149 27 0 32 -64 32 -381 l0 -259 -37 -19
c-168 -85 -174 -401 -10 -480 104 -50 220 -34 297 40 59 58 80 108 80 199 0
117 -49 202 -137 239 l-30 12 -7 209 c-7 207 0 407 14 431 13 20 37 3 74 -53
20 -29 67 -84 104 -123 38 -38 108 -115 157 -170 48 -55 120 -134 159 -175
135 -141 246 -267 246 -280 0 -6 -20 -35 -45 -62 -53 -59 -117 -185 -142 -278
-25 -93 -23 -242 5 -343 66 -235 232 -413 447 -480 107 -33 281 -30 391 6 94
31 211 104 269 168 47 51 128 173 151 227 27 65 54 195 54 264 0 159 -68 349
-164 454 l-44 49 71 80 c38 44 115 128 171 186 157 164 386 414 439 480 27 32
53 59 58 59 16 0 19 -44 21 -341 l3 -297 -33 -12 c-52 -18 -87 -55 -117 -121
-25 -57 -27 -70 -22 -145 7 -117 40 -178 122 -218 76 -39 155 -46 216 -19 103
46 159 130 159 239 0 115 -55 210 -146 253 -43 21 -46 24 -40 54 3 18 6 161 7
318 l1 286 54 22 c63 27 156 121 187 190 15 35 18 60 15 120 -9 161 -112 299
-241 326 l-29 6 8 76 c3 42 10 88 14 102 7 23 8 21 9 -15 1 -32 6 -43 24 -51
12 -6 49 -23 82 -39 37 -17 84 -51 122 -89 51 -51 64 -72 81 -126 l20 -64 298
3 c165 1 323 7 351 12 79 14 149 48 222 108 90 73 142 134 207 244 94 160 89
105 89 903 l0 700 -34 99 c-64 184 -180 321 -337 397 -154 74 -124 72 -1019
76 -440 3 -819 1 -843 -2 -31 -5 -42 -11 -40 -22 3 -13 201 -134 548 -335 266
-155 444 -296 524 -416 46 -70 100 -189 88 -196 -4 -2 -25 -9 -47 -16 -22 -7
-101 -43 -175 -80 -74 -36 -162 -77 -195 -89 -33 -13 -166 -76 -295 -139 -129
-63 -307 -148 -395 -189 -88 -40 -209 -101 -270 -135 -144 -81 -172 -94 -220
-103 -66 -11 -107 -65 -71 -94 7 -6 53 -25 101 -41 161 -55 335 -165 419 -266
56 -67 120 -195 141 -284 10 -41 23 -78 29 -82 6 -4 32 -8 58 -8 l47 0 30 64
c39 81 146 185 217 211 27 10 54 25 61 32 9 12 13 5 18 -34 3 -26 8 -59 11
-73 4 -21 -2 -29 -42 -49 -73 -39 -140 -105 -174 -174 l-31 -62 -112 -5 -112
-5 -3 -72 -3 -73 119 0 119 0 7 -38 c3 -21 17 -60 31 -86 14 -26 25 -51 25
-56 0 -14 -161 -200 -297 -342 -163 -171 -352 -375 -390 -422 l-31 -38 -69 27
c-37 15 -95 32 -128 38 l-60 10 0 186 0 185 40 7 c189 33 331 145 434 344 68
130 89 244 71 375 -22 166 -77 280 -180 373 -112 100 -232 157 -378 177 -201
27 -406 -53 -546 -212 -54 -61 -128 -208 -147 -288 -19 -82 -15 -204 10 -295
69 -249 243 -430 449 -465 l69 -11 6 -127 c4 -70 7 -153 7 -184 0 -55 -1 -58
-27 -64 -103 -22 -151 -37 -179 -55 l-33 -20 -59 63 c-97 105 -145 159 -232
258 -45 52 -146 160 -224 240 -77 80 -158 166 -178 191 l-38 46 40 77 c22 42
40 84 40 92 0 11 21 14 110 14 l110 0 0 75 0 75 -110 0 -110 0 -35 71 c-46 91
-107 152 -166 167 l-44 11 6 103 c4 57 7 143 8 192 1 49 4 87 7 83 3 -3 12
-63 20 -132 8 -70 16 -131 19 -135 3 -5 34 -24 69 -44 69 -38 102 -72 155
-154 31 -49 36 -52 77 -54 24 -1 52 -2 61 -2 13 -1 24 23 48 104 34 117 62
169 132 251 112 132 293 245 486 305 61 19 66 28 43 72 -28 53 -62 74 -241
140 -169 63 -405 158 -510 205 -60 27 -222 98 -360 158 -137 61 -288 132 -335
159 -47 26 -122 67 -167 89 -46 23 -83 47 -83 55 0 7 22 57 48 112 43 87 60
109 136 182 102 96 426 313 621 416 28 14 91 52 140 84 78 51 147 84 219 107
18 5 19 7 2 23 -15 16 -72 17 -749 19 -403 0 -768 -2 -812 -7z m92 -1436 c89
-55 122 -133 103 -245 -15 -87 -50 -137 -121 -173 -68 -33 -120 -34 -187 0
-88 44 -141 127 -142 222 0 30 7 69 16 88 21 43 106 121 148 134 56 17 131 6
183 -26z m4427 2 c86 -51 122 -119 113 -216 -8 -88 -59 -171 -127 -205 -23
-12 -57 -18 -102 -18 -58 0 -75 5 -114 29 -98 61 -142 210 -93 310 13 26 37
60 52 76 61 61 189 72 271 24z m-958 -22 c46 -22 100 -85 113 -131 16 -56 -4
-145 -43 -196 -45 -58 -78 -79 -133 -84 -39 -4 -58 1 -103 24 -109 58 -143
198 -75 309 52 83 157 117 241 78z m-2577 -13 c47 -25 69 -57 82 -124 13 -61
-7 -162 -40 -207 -67 -92 -231 -84 -307 16 -49 64 -43 198 11 263 58 68 175
92 254 52z m1266 -692 c98 -18 180 -61 246 -130 112 -117 154 -245 130 -404
-27 -182 -114 -302 -266 -364 -188 -77 -381 -39 -510 100 -151 164 -175 390
-63 586 49 86 86 119 190 168 110 52 174 63 273 44z m-1305 -354 c39 -20 80
-76 87 -119 7 -41 -28 -108 -78 -150 -59 -50 -157 -29 -212 46 -29 39 -27 117
4 163 44 65 136 92 199 60z m2598 -5 c74 -34 102 -131 62 -211 -54 -105 -186
-105 -257 0 -64 94 11 220 137 229 8 1 34 -7 58 -18z m-1165 -1338 c77 -38
193 -145 225 -207 64 -126 74 -287 27 -415 -35 -96 -61 -136 -124 -192 -112
-101 -206 -133 -366 -126 -90 4 -109 8 -176 41 -129 62 -213 168 -250 318 -27
104 -22 210 15 317 30 91 53 124 123 182 111 93 193 120 348 117 103 -2 115
-4 178 -35z"/>
<path d="M4868 4825 c-37 -13 -120 -65 -105 -65 4 0 19 7 32 16 13 9 30 12 36
8 8 -4 9 -3 5 5 -7 11 7 20 36 25 7 1 19 5 26 9 6 5 16 6 20 3 4 -2 14 -1 22
5 23 14 -28 10 -72 -6z"/>
<path d="M5090 4810 c8 -5 20 -10 25 -10 6 0 3 5 -5 10 -8 5 -19 10 -25 10 -5
0 -3 -5 5 -10z"/>
<path d="M5018 3173 c7 -3 16 -2 19 1 4 3 -2 6 -13 5 -11 0 -14 -3 -6 -6z"/>
<path d="M5090 3150 c8 -5 20 -10 25 -10 6 0 3 5 -5 10 -8 5 -19 10 -25 10 -5
0 -3 -5 5 -10z"/>
<path d="M5160 3110 c0 -5 5 -10 11 -10 5 0 7 5 4 10 -3 6 -8 10 -11 10 -2 0
-4 -4 -4 -10z"/>
<path d="M5202 3065 c15 -14 30 -25 34 -25 4 0 -3 11 -16 25 -13 14 -28 25
-34 25 -6 0 1 -11 16 -25z"/>
<path d="M4630 6980 c0 -30 92 -187 184 -315 32 -44 63 -90 68 -101 10 -21
-12 -134 -62 -327 l-18 -69 28 -81 c15 -45 52 -155 81 -244 49 -149 69 -192
69 -146 0 39 126 398 152 436 l19 27 -25 53 c-25 53 -45 127 -72 265 -13 68
-13 75 5 100 141 206 260 406 249 417 -3 4 -60 1 -125 -6 -122 -12 -427 -7
-510 10 -42 8 -43 8 -43 -19z"/>
<path d="M4280 6902 c-409 -226 -681 -402 -797 -517 -48 -47 -83 -90 -83 -101
1 -14 41 -39 168 -102 92 -45 185 -88 207 -96 22 -8 94 -40 160 -71 66 -32
154 -72 195 -90 41 -18 129 -57 195 -87 66 -30 138 -61 160 -68 53 -17 275
-127 298 -147 9 -9 20 -13 24 -9 12 11 -15 117 -72 288 -88 260 -224 698 -274
883 -32 114 -52 171 -62 172 -8 1 -61 -24 -119 -55z"/>
<path d="M5506 6923 c-20 -116 -208 -758 -312 -1068 -41 -120 -74 -230 -74
-244 0 -22 1 -23 18 -8 10 9 53 32 96 52 44 20 91 44 105 55 40 28 408 211
571 283 80 35 165 74 190 85 164 77 371 156 427 164 l23 3 -24 50 c-27 60 -77
106 -211 201 -192 136 -758 464 -800 464 -2 0 -6 -17 -9 -37z"/>
<path d="M3201 4396 c-19 -14 -56 -55 -84 -93 -28 -37 -84 -101 -123 -143 -39
-41 -82 -88 -95 -103 l-24 -28 -48 21 c-148 65 -350 31 -470 -79 -28 -26 -56
-67 -77 -113 -79 -171 -35 -395 103 -525 78 -74 145 -97 278 -98 102 0 108 1
181 37 166 83 256 253 229 435 -12 80 -44 175 -66 193 -8 7 -15 16 -15 21 0 8
199 229 266 294 70 68 76 93 43 162 -25 51 -48 55 -98 19z m-468 -517 c49 -13
110 -68 136 -123 53 -109 -1 -261 -112 -315 -52 -25 -154 -28 -196 -6 -66 34
-131 143 -131 220 0 17 7 56 16 86 35 116 156 175 287 138z"/>
<path d="M6638 4403 c-23 -27 -38 -59 -38 -83 0 -13 59 -82 166 -193 91 -95
172 -181 180 -193 13 -19 11 -28 -18 -89 -74 -159 -39 -370 81 -492 109 -111
326 -161 461 -107 242 99 356 396 239 626 -47 92 -145 171 -252 203 -100 30
-265 15 -331 -30 l-34 -23 -98 106 c-137 151 -255 272 -275 283 -28 14 -64 11
-81 -8z m787 -522 c98 -44 145 -118 145 -226 0 -73 -14 -114 -55 -163 -58 -69
-154 -95 -247 -68 -45 13 -66 27 -105 70 -98 107 -99 240 -3 337 68 68 180 89
265 50z"/>
</g>
</svg>
